<svg width="66" height="65" viewBox="0 0 66 65" fill="none" xmlns="http://www.w3.org/2000/svg">
<circle cx="33.1164" cy="32.3107" r="32.3107" fill="#E1EED0"/>
<path d="M32.9687 25.2996C31.6704 25.2996 30.4013 25.676 29.3219 26.3812C28.2424 27.0865 27.401 28.0889 26.9042 29.2617C26.4075 30.4344 26.2774 31.7249 26.5308 32.9699C26.784 34.2149 27.4091 35.3586 28.3271 36.2562C29.2451 37.1538 30.4148 37.7651 31.688 38.0126C32.9613 38.2603 34.2812 38.1332 35.4806 37.6474C36.68 37.1616 37.7053 36.3391 38.4266 35.2835C39.1478 34.2281 39.5327 32.9872 39.5327 31.7178C39.5327 30.0156 38.8412 28.3831 37.6102 27.1794C36.3792 25.9758 34.7096 25.2996 32.9687 25.2996ZM32.9687 35.8896C32.1313 35.8896 31.3127 35.6469 30.6164 35.1919C29.9203 34.7371 29.3776 34.0905 29.0571 33.3341C28.7367 32.5776 28.6528 31.7452 28.8161 30.9422C28.9795 30.1393 29.3828 29.4016 29.9748 28.8226C30.567 28.2437 31.3214 27.8494 32.1426 27.6897C32.9639 27.5299 33.8153 27.6119 34.5889 27.9253C35.3625 28.2386 36.0238 28.7692 36.489 29.4499C36.9542 30.1307 37.2025 30.9311 37.2025 31.7498C37.2047 32.2942 37.0967 32.8334 36.8847 33.3365C36.6727 33.8398 36.3609 34.297 35.9673 34.6819C35.5738 35.0667 35.1061 35.3715 34.5914 35.5788C34.0768 35.7861 33.5253 35.8918 32.9687 35.8896Z" fill="#133700"/>
<path d="M38.2199 44.8755H27.5039C25.367 44.8755 23.3175 44.0455 21.8065 42.5681C20.2954 41.0905 19.4465 39.0866 19.4465 36.9971V26.5193C19.4465 24.4298 20.2954 22.4259 21.8065 20.9484C23.3175 19.4709 25.367 18.6409 27.5039 18.6409H38.2199C40.3441 18.662 42.3742 19.5008 43.8702 20.9756C45.3662 22.4503 46.2075 24.4422 46.2117 26.5193V36.9971C46.2117 39.0755 45.3719 41.0698 43.875 42.5454C42.378 44.021 40.3454 44.8586 38.2199 44.8755ZM27.5039 21.1119C26.0372 21.1119 24.6305 21.6816 23.5935 22.6957C22.5563 23.7098 21.9737 25.0852 21.9737 26.5193V36.9971C21.9737 37.7072 22.1166 38.4104 22.3946 39.0664C22.6725 39.7225 23.0799 40.3186 23.5935 40.8207C24.107 41.3229 24.7166 41.7211 25.3876 41.9929C26.0585 42.2646 26.7777 42.4045 27.5039 42.4045H38.2199C38.9461 42.4045 39.6652 42.2646 40.3361 41.9929C41.0072 41.7211 41.6167 41.3229 42.1304 40.8207C42.6439 40.3186 43.0512 39.7225 43.3291 39.0664C43.6071 38.4104 43.7501 37.7072 43.7501 36.9971V26.5193C43.7501 25.0852 43.1674 23.7098 42.1304 22.6957C41.0932 21.6816 39.6866 21.1119 38.2199 21.1119H27.5039Z" fill="#133700"/>
</svg>
