<svg width="66" height="65" viewBox="0 0 66 65" fill="none" xmlns="http://www.w3.org/2000/svg">
<circle cx="32.9223" cy="32.3107" r="32.3107" fill="#E1EED0"/>
<path d="M45.6 24.7685C44.7798 25.1079 43.9198 25.3451 43.04 25.4745C43.4501 25.4745 44.0565 24.6723 44.3026 24.3835C44.6766 23.9364 44.96 23.4247 45.1401 22.8752C45.1401 22.8752 45.1401 22.7789 45.1401 22.7468C45.1203 22.7355 45.0979 22.7296 45.0743 22.7296C45.0507 22.7296 45.0283 22.7355 45.0084 22.7468C44.0528 23.2413 43.0387 23.6186 41.9886 23.87C41.9576 23.89 41.9203 23.9007 41.883 23.9007C41.8445 23.9007 41.8072 23.89 41.7761 23.87C41.6966 23.7766 41.6083 23.6906 41.5139 23.6133C41.074 23.2506 40.5819 22.9532 40.0525 22.7307C39.3391 22.4542 38.5711 22.3338 37.8044 22.3777C37.0587 22.4291 36.333 22.6313 35.6719 22.9714C35.0108 23.3106 34.4254 23.7741 33.9482 24.3353C33.4648 24.93 33.1181 25.6196 32.9304 26.3571C32.7826 27.0557 32.7826 27.7764 32.9304 28.4751C32.9304 28.5874 32.9304 28.6034 32.8161 28.5874C28.8009 28.1874 25.0827 26.3329 22.3959 23.3886C22.2642 23.2602 22.1983 23.2602 22.1002 23.3886C21.5645 24.3632 21.3632 25.48 21.526 26.5747C21.6888 27.6694 22.2058 28.6843 23.0024 29.4699C23.2 29.6464 23.4125 29.8389 23.6424 30.0154C22.9452 29.9649 22.2642 29.7795 21.6403 29.4699C21.526 29.3897 21.4602 29.4699 21.444 29.5662C21.4278 29.7584 21.4278 29.9517 21.444 30.1438C21.567 31.0579 21.9361 31.9237 22.5127 32.6536C23.0894 33.3833 23.8524 33.9512 24.726 34.2997C24.9447 34.3807 25.1697 34.4451 25.3983 34.4922C24.7459 34.5963 24.081 34.5963 23.4286 34.4922C23.282 34.4922 23.2323 34.4922 23.282 34.6686C23.6188 35.5276 24.1743 36.2888 24.895 36.8808C25.6146 37.473 26.477 37.8767 27.4003 38.0543H27.9745C27.1717 38.7608 26.2024 39.2623 25.1523 39.5145C23.7803 39.9901 22.3201 40.176 20.8686 40.06C20.64 40.06 20.5903 40.06 20.5244 40.06C20.4585 40.06 20.5244 40.1402 20.5244 40.2045C20.8164 40.391 21.1172 40.5624 21.4266 40.7178C22.3325 41.1974 23.2907 41.5743 24.2824 41.8411C26.8324 42.5846 29.5366 42.6634 32.1277 42.0695C34.7187 41.4756 37.106 40.2298 39.0521 38.4555C40.4514 36.9672 41.5338 35.2223 42.2384 33.3218C42.9418 31.4213 43.2537 29.403 43.1543 27.384C43.1543 27.2235 43.3345 27.1433 43.45 27.0631C44.2156 26.4721 44.8953 25.781 45.4682 25.0092C45.5527 24.8976 45.5987 24.7628 45.6 24.6241C45.6 24.6241 45.6981 24.7204 45.6 24.7685Z" fill="#133700"/>
</svg>
