<svg width="58" height="58" viewBox="0 0 58 58" fill="none" xmlns="http://www.w3.org/2000/svg">
<g filter="url(#filter0_d_7_21)">
<rect x="4" width="50" height="50" rx="10" fill="#133700"/>
<g clip-path="url(#clip0_7_21)">
<path fill-rule="evenodd" clip-rule="evenodd" d="M23.1614 18.3743C23.5329 17.9914 23.7372 17.48 23.7329 16.9486C23.7137 16.4327 23.4982 15.9437 23.1304 15.5815C22.7626 15.2193 22.2704 15.0113 21.7543 15C21.2367 15.0111 20.7426 15.2186 20.3723 15.5804C20.002 15.9422 19.7831 16.4313 19.76 16.9486C19.7674 17.4795 19.9784 17.9873 20.3496 18.367C20.7208 18.7467 21.2237 18.9692 21.7543 18.9886C22.2857 18.9761 22.791 18.7555 23.1614 18.3743ZM21.3857 21.6143C20.5472 21.5957 19.9757 21.5829 19.9757 22.6086V34.0257C19.9757 35.03 20.5214 35.01 21.3072 34.98C21.45 34.9743 21.6 34.9686 21.7557 34.9686C21.9129 34.9686 22.0629 34.9743 22.2043 34.98C22.9872 35.0086 23.5214 35.03 23.5214 34.0257V22.61C23.5214 21.5843 22.9614 21.5957 22.1272 21.6157C21.88 21.6214 21.6328 21.62 21.3857 21.6143ZM27.22 21.6357C26.84 21.7114 26.5957 21.9543 26.5957 22.6086V34.0257C26.5957 35.03 27.12 35.01 27.9072 34.98C28.05 34.9743 28.2029 34.9686 28.3614 34.9686C28.5214 34.9686 28.6729 34.9743 28.8172 34.98C29.6086 35.0086 30.1429 35.03 30.1429 34.0257V27.9371C30.1124 27.6259 30.1484 27.3118 30.2485 27.0155C30.3487 26.7193 30.5106 26.4477 30.7236 26.2187C30.9366 25.9898 31.1958 25.8087 31.4841 25.6875C31.7724 25.5663 32.0831 25.5078 32.3957 25.5157C32.7099 25.4969 33.0243 25.546 33.3178 25.6596C33.6113 25.7732 33.8768 25.9487 34.0964 26.1741C34.316 26.3995 34.4845 26.6696 34.5903 26.9659C34.6962 27.2622 34.737 27.5779 34.71 27.8914V33.9786C34.71 34.9843 35.2329 34.9643 36.02 34.9343C36.1629 34.9286 36.3157 34.9229 36.4743 34.9229C36.6343 34.9229 36.7857 34.9286 36.93 34.9343C37.7172 34.9629 38.24 34.9843 38.24 33.98V26.1857C38.2693 25.5458 38.1635 24.9069 37.9296 24.3105C37.6957 23.7141 37.3389 23.1737 36.8824 22.7243C36.4259 22.2749 35.8799 21.9267 35.2799 21.7022C34.6799 21.4777 34.0394 21.3821 33.4 21.4214C32.7488 21.3622 32.0933 21.4711 31.4962 21.7377C30.8992 22.0044 30.3805 22.4198 29.99 22.9443C30.0057 22.3814 29.8229 21.6357 29.3672 21.6357C29.2357 21.6357 29.0343 21.6286 28.8057 21.6214C28.2343 21.6043 27.4914 21.5814 27.22 21.6357Z" fill="white"/>
</g>
</g>
<defs>
<filter id="filter0_d_7_21" x="0" y="0" width="58" height="58" filterUnits="userSpaceOnUse" color-interpolation-filters="sRGB">
<feFlood flood-opacity="0" result="BackgroundImageFix"/>
<feColorMatrix in="SourceAlpha" type="matrix" values="0 0 0 0 0 0 0 0 0 0 0 0 0 0 0 0 0 0 127 0" result="hardAlpha"/>
<feOffset dy="4"/>
<feGaussianBlur stdDeviation="2"/>
<feComposite in2="hardAlpha" operator="out"/>
<feColorMatrix type="matrix" values="0 0 0 0 0 0 0 0 0 0 0 0 0 0 0 0 0 0 0.1 0"/>
<feBlend mode="normal" in2="BackgroundImageFix" result="effect1_dropShadow_7_21"/>
<feBlend mode="normal" in="SourceGraphic" in2="effect1_dropShadow_7_21" result="shape"/>
</filter>
<clipPath id="clip0_7_21">
<rect width="20" height="20" fill="white" transform="translate(19 15)"/>
</clipPath>
</defs>
</svg>
