<svg width="58" height="58" viewBox="0 0 58 58" fill="none" xmlns="http://www.w3.org/2000/svg">
<g filter="url(#filter0_d_7_6)">
<rect x="4" width="50" height="50" rx="10" fill="#133700"/>
<path d="M27.0017 32.5217V26.46H24.6817C24.5612 26.46 24.4457 26.4121 24.3605 26.327C24.2754 26.2418 24.2275 26.1263 24.2275 26.0058V23.6083C24.2275 23.4879 24.2754 23.3724 24.3605 23.2872C24.4457 23.202 24.5612 23.1542 24.6817 23.1542H26.9925V20.8333C26.9372 20.283 27.0031 19.7272 27.1855 19.205C27.368 18.6828 27.6625 18.2068 28.0485 17.8106C28.4345 17.4144 28.9025 17.1075 29.4198 16.9114C29.937 16.7154 30.4909 16.635 31.0425 16.6758H32.9758C33.0974 16.6756 33.2143 16.7232 33.3011 16.8083C33.3879 16.8934 33.4378 17.0092 33.44 17.1308V19.1608C33.4374 19.2822 33.3873 19.3977 33.3006 19.4826C33.2138 19.5675 33.0972 19.615 32.9758 19.615H31.7675C30.4625 19.615 30.2117 20.2333 30.2117 21.1425V23.1533H33.3142C33.3787 23.1512 33.4428 23.1631 33.5022 23.1883C33.5616 23.2135 33.6148 23.2513 33.6581 23.2991C33.7014 23.3469 33.7338 23.4036 33.753 23.4652C33.7722 23.5268 33.7777 23.5919 33.7692 23.6558L33.4883 26.0625C33.4743 26.1727 33.4203 26.274 33.3366 26.3471C33.2529 26.4202 33.1453 26.4601 33.0342 26.4592H30.2308V32.5208C30.2322 32.6279 30.2121 32.7341 30.1717 32.8332C30.1314 32.9324 30.0715 33.0224 29.9958 33.0981C29.9201 33.1737 29.83 33.2334 29.7308 33.2737C29.6316 33.314 29.5254 33.334 29.4183 33.3325H27.8042C27.698 33.3327 27.5927 33.3118 27.4947 33.271C27.3966 33.2302 27.3076 33.1702 27.233 33.0947C27.1583 33.0192 27.0994 32.9295 27.0597 32.831C27.0199 32.7325 27.0002 32.6279 27.0017 32.5217Z" fill="white"/>
</g>
<defs>
<filter id="filter0_d_7_6" x="0" y="0" width="58" height="58" filterUnits="userSpaceOnUse" color-interpolation-filters="sRGB">
<feFlood flood-opacity="0" result="BackgroundImageFix"/>
<feColorMatrix in="SourceAlpha" type="matrix" values="0 0 0 0 0 0 0 0 0 0 0 0 0 0 0 0 0 0 127 0" result="hardAlpha"/>
<feOffset dy="4"/>
<feGaussianBlur stdDeviation="2"/>
<feComposite in2="hardAlpha" operator="out"/>
<feColorMatrix type="matrix" values="0 0 0 0 0 0 0 0 0 0 0 0 0 0 0 0 0 0 0.1 0"/>
<feBlend mode="normal" in2="BackgroundImageFix" result="effect1_dropShadow_7_6"/>
<feBlend mode="normal" in="SourceGraphic" in2="effect1_dropShadow_7_6" result="shape"/>
</filter>
</defs>
</svg>
