<svg width="65" height="65" viewBox="0 0 65 65" fill="none" xmlns="http://www.w3.org/2000/svg">
<circle cx="32.3107" cy="32.3107" r="32.3107" fill="#E1EED0"/>
<path d="M39.1474 34.3816L39.9352 29.3272H35.0121V26.1181C34.9806 25.787 35.0164 25.4531 35.1174 25.1357C35.2185 24.8182 35.3829 24.5234 35.601 24.2683C35.8192 24.0133 36.0868 23.8029 36.3885 23.6495C36.6902 23.4961 37.0199 23.4025 37.3588 23.3743C37.544 23.3501 37.7315 23.3501 37.9167 23.3743H40.1813V18.9939C38.8563 18.7881 37.5185 18.6701 36.1772 18.6409C32.0747 18.6409 29.3998 21.0798 29.3998 25.4602V29.3112H24.8542V34.3816H29.3998V46.6083H34.9957V34.3816H39.1474Z" fill="#133700"/>
</svg>
