<?xml version="1.0" encoding="UTF-8"?>
<!DOCTYPE svg PUBLIC "-//W3C//DTD SVG 1.1//EN" "http://www.w3.org/Graphics/SVG/1.1/DTD/svg11.dtd">
<svg xmlns="http://www.w3.org/2000/svg" version="1.1" width="180px" height="90px" style="shape-rendering:geometricPrecision; text-rendering:geometricPrecision; image-rendering:optimizeQuality; fill-rule:evenodd; clip-rule:evenodd" xmlns:xlink="http://www.w3.org/1999/xlink">
<g><path style="opacity:0.322" fill="#74d3e2" d="M 18.5,20.5 C 21.3854,20.1936 24.0521,20.5269 26.5,21.5C 24.8014,21.6204 23.1347,21.9537 21.5,22.5C 19.9623,22.5466 18.9623,21.8799 18.5,20.5 Z"/></g>
<g><path style="opacity:0.933" fill="#55d0ed" d="M 18.5,20.5 C 18.9623,21.8799 19.9623,22.5466 21.5,22.5C 23.1347,21.9537 24.8014,21.6204 26.5,21.5C 26.8333,21.5 27.1667,21.5 27.5,21.5C 26.0998,22.1001 25.0998,23.1001 24.5,24.5C 24.1667,24.5 23.8333,24.5 23.5,24.5C 20.5,24.5 17.5,24.5 14.5,24.5C 14.5,23.8333 14.5,23.1667 14.5,22.5C 15.5137,21.3263 16.847,20.6596 18.5,20.5 Z"/></g>
<g><path style="opacity:1" fill="#39c4e2" d="M 14.5,22.5 C 14.5,23.1667 14.5,23.8333 14.5,24.5C 14.1583,25.3382 13.4916,25.6716 12.5,25.5C 11.1851,26.4756 9.85181,27.4756 8.5,28.5C 8.16667,28.3333 7.83333,28.1667 7.5,28C 8.7101,26.9609 9.7101,25.7942 10.5,24.5C 11.5137,23.3263 12.847,22.6596 14.5,22.5 Z"/></g>
<g><path style="opacity:0.965" fill="#5fd4e7" d="M 27.5,21.5 C 28.5,22.1667 29.5,22.8333 30.5,23.5C 30.366,25.2915 30.6993,26.9582 31.5,28.5C 30.391,28.4431 29.391,28.1098 28.5,27.5C 27.205,26.5116 25.8717,25.5116 24.5,24.5C 25.0998,23.1001 26.0998,22.1001 27.5,21.5 Z"/></g>
<g><path style="opacity:1" fill="#1ab7d0" d="M 14.5,24.5 C 17.5,24.5 20.5,24.5 23.5,24.5C 23.5,24.8333 23.5,25.1667 23.5,25.5C 21.2646,25.2053 19.2646,25.5386 17.5,26.5C 16.8333,26.5 16.1667,26.5 15.5,26.5C 14.5,26.5 13.5,26.5 12.5,26.5C 12.5,26.1667 12.5,25.8333 12.5,25.5C 13.4916,25.6716 14.1583,25.3382 14.5,24.5 Z"/></g>
<g><path style="opacity:1" fill="#08aac7" d="M 15.5,26.5 C 16.1667,26.5 16.8333,26.5 17.5,26.5C 18.8333,27.5 18.8333,28.5 17.5,29.5C 16.1667,29.5 14.8333,29.5 13.5,29.5C 13.7822,28.2223 14.4489,27.2223 15.5,26.5 Z"/></g>
<g><path style="opacity:1" fill="#18bcd1" d="M 23.5,24.5 C 23.8333,24.5 24.1667,24.5 24.5,24.5C 25.8717,25.5116 27.205,26.5116 28.5,27.5C 27.5084,27.3284 26.8417,27.6618 26.5,28.5C 25.5,28.5 24.5,28.5 23.5,28.5C 23.5,27.5 23.5,26.5 23.5,25.5C 23.5,25.1667 23.5,24.8333 23.5,24.5 Z"/></g>
<g><path style="opacity:0.988" fill="#7dd1df" d="M 30.5,23.5 C 33.5,25.8333 36.1667,28.5 38.5,31.5C 37.391,31.5569 36.391,31.8902 35.5,32.5C 35.1583,31.6618 34.4916,31.3284 33.5,31.5C 32.8333,30.5 32.1667,29.5 31.5,28.5C 30.6993,26.9582 30.366,25.2915 30.5,23.5 Z"/></g>
<g><path style="opacity:1" fill="#0ab3c7" d="M 23.5,25.5 C 23.5,26.5 23.5,27.5 23.5,28.5C 24.5,28.5 25.5,28.5 26.5,28.5C 26.6716,29.4916 26.3382,30.1583 25.5,30.5C 22.8728,29.9084 20.2062,29.5751 17.5,29.5C 18.8333,28.5 18.8333,27.5 17.5,26.5C 19.2646,25.5386 21.2646,25.2053 23.5,25.5 Z"/></g>
<g><path style="opacity:1" fill="#03a9bc" d="M 12.5,26.5 C 13.5,26.5 14.5,26.5 15.5,26.5C 14.4489,27.2223 13.7822,28.2223 13.5,29.5C 12.8333,29.8333 12.1667,30.1667 11.5,30.5C 10.2905,30.9321 9.29049,31.5987 8.5,32.5C 6.66558,33.494 4.99891,33.494 3.5,32.5C 6.81415,30.8572 9.81415,28.8572 12.5,26.5 Z"/></g>
<g><path style="opacity:1" fill="#13bcd1" d="M 28.5,27.5 C 29.391,28.1098 30.391,28.4431 31.5,28.5C 32.1667,29.5 32.8333,30.5 33.5,31.5C 32.8333,32.1667 32.1667,32.8333 31.5,33.5C 30.1667,33.1667 28.8333,32.8333 27.5,32.5C 26.8333,31.8333 26.1667,31.1667 25.5,30.5C 26.3382,30.1583 26.6716,29.4916 26.5,28.5C 26.8417,27.6618 27.5084,27.3284 28.5,27.5 Z"/></g>
<g><path style="opacity:1" fill="#27afc9" d="M 10.5,24.5 C 9.7101,25.7942 8.7101,26.9609 7.5,28C 7.83333,28.1667 8.16667,28.3333 8.5,28.5C 9.85181,27.4756 11.1851,26.4756 12.5,25.5C 12.5,25.8333 12.5,26.1667 12.5,26.5C 9.81415,28.8572 6.81415,30.8572 3.5,32.5C 3.5,31.8333 3.5,31.1667 3.5,30.5C 5.23931,27.7573 7.57265,25.7573 10.5,24.5 Z"/></g>
<g><path style="opacity:1" fill="#15bfdb" d="M 13.5,29.5 C 14.8333,29.5 16.1667,29.5 17.5,29.5C 17.5,29.8333 17.5,30.1667 17.5,30.5C 15.2459,31.4151 13.2459,32.7484 11.5,34.5C 11.5,33.1667 11.5,31.8333 11.5,30.5C 12.1667,30.1667 12.8333,29.8333 13.5,29.5 Z"/></g>
<g><path style="opacity:0.169" fill="#46d7e5" d="M 17.5,30.5 C 17.5,30.1667 17.5,29.8333 17.5,29.5C 20.2062,29.5751 22.8728,29.9084 25.5,30.5C 26.1667,31.1667 26.8333,31.8333 27.5,32.5C 27.5,33.1667 27.5,33.8333 27.5,34.5C 25.0872,32.9493 22.4206,32.2826 19.5,32.5C 19.5,31.1667 18.8333,30.5 17.5,30.5 Z"/></g>
<g><path style="opacity:0.039" fill="#43e0f7" d="M 17.5,30.5 C 18.8333,30.5 19.5,31.1667 19.5,32.5C 15.6425,33.6863 12.6425,36.0197 10.5,39.5C 9.26553,37.6017 9.59887,35.935 11.5,34.5C 13.2459,32.7484 15.2459,31.4151 17.5,30.5 Z"/></g>
<g><path style="opacity:1" fill="#1ea5cb" d="M 106.5,36.5 C 104.956,36.7031 103.622,37.3698 102.5,38.5C 101.817,38.1373 101.15,37.8039 100.5,37.5C 102.599,36.1851 102.933,34.5184 101.5,32.5C 102.251,31.4265 103.251,31.2599 104.5,32C 106.65,33.1923 107.317,34.6923 106.5,36.5 Z"/></g>
<g><path style="opacity:0.588" fill="#2d899a" d="M 128.5,40.5 C 127.833,40.5 127.5,40.1667 127.5,39.5C 127.5,37.1667 127.5,34.8333 127.5,32.5C 125.901,32.2322 124.568,32.5655 123.5,33.5C 122.957,33.44 122.624,33.1067 122.5,32.5C 124.396,31.5344 126.396,31.2011 128.5,31.5C 128.5,34.5 128.5,37.5 128.5,40.5 Z"/></g>
<g><path style="opacity:1" fill="#15a8c7" d="M 3.5,30.5 C 3.5,31.1667 3.5,31.8333 3.5,32.5C 4.99891,33.494 6.66558,33.494 8.5,32.5C 8.06795,33.7095 7.40128,34.7095 6.5,35.5C 5.5041,35.4142 4.67076,35.7476 4,36.5C 3.29044,35.0267 2.12377,34.3601 0.5,34.5C 1.51163,33.1283 2.51163,31.795 3.5,30.5 Z"/></g>
<g><path style="opacity:1" fill="#24bfd9" d="M 33.5,31.5 C 34.4916,31.3284 35.1583,31.6618 35.5,32.5C 35.5,33.5 35.5,34.5 35.5,35.5C 34.6618,35.8417 34.3284,36.5084 34.5,37.5C 33.1667,37.5 31.8333,37.5 30.5,37.5C 32.4931,36.5284 32.8264,35.1951 31.5,33.5C 32.1667,32.8333 32.8333,32.1667 33.5,31.5 Z"/></g>
<g><path style="opacity:0.176" fill="#2998c0" d="M 55.5,33.5 C 59.1224,33.322 62.4557,33.9886 65.5,35.5C 65.5299,36.4972 65.0299,37.1639 64,37.5C 62.9889,36.9444 62.1556,36.2778 61.5,35.5C 60.1667,35.5 58.8333,35.5 57.5,35.5C 56.8333,34.8333 56.1667,34.1667 55.5,33.5 Z"/></g>
<g><path style="opacity:1" fill="#22b5c3" d="M 101.5,32.5 C 102.933,34.5184 102.599,36.1851 100.5,37.5C 97.6947,35.2439 98.028,33.5772 101.5,32.5 Z"/></g>
<g><path style="opacity:1" fill="#15a4b6" d="M 127.5,39.5 C 127.167,39.5 126.833,39.5 126.5,39.5C 126.5,38.5 126.5,37.5 126.5,36.5C 125.5,36.5 124.5,36.5 123.5,36.5C 123.5,35.5 123.5,34.5 123.5,33.5C 124.568,32.5655 125.901,32.2322 127.5,32.5C 127.5,34.8333 127.5,37.1667 127.5,39.5 Z"/></g>
<g><path style="opacity:0.804" fill="#2d95ae" d="M 179.5,31.5 C 179.5,31.8333 179.5,32.1667 179.5,32.5C 171.299,39.4564 170.466,38.4564 177,29.5C 177.708,30.3805 178.542,31.0472 179.5,31.5 Z"/></g>
<g><path style="opacity:1" fill="#23bfdc" d="M 11.5,30.5 C 11.5,31.8333 11.5,33.1667 11.5,34.5C 9.59887,35.935 9.26553,37.6017 10.5,39.5C 10.5,40.8333 10.5,42.1667 10.5,43.5C 10.1667,43.5 9.83333,43.5 9.5,43.5C 9.27917,40.9028 8.77917,40.9028 8,43.5C 7.99775,40.9488 7.16441,38.9488 5.5,37.5C 5.83333,36.8333 6.16667,36.1667 6.5,35.5C 7.40128,34.7095 8.06795,33.7095 8.5,32.5C 9.29049,31.5987 10.2905,30.9321 11.5,30.5 Z"/></g>
<g><path style="opacity:1" fill="#29bee8" d="M 27.5,32.5 C 28.8333,32.8333 30.1667,33.1667 31.5,33.5C 32.8264,35.1951 32.4931,36.5284 30.5,37.5C 29.1667,36.8333 28.1667,35.8333 27.5,34.5C 27.5,33.8333 27.5,33.1667 27.5,32.5 Z"/></g>
<g><path style="opacity:1" fill="#70d3df" d="M 38.5,31.5 C 38.8333,32.8333 39.1667,34.1667 39.5,35.5C 38.1667,35.5 37.5,36.1667 37.5,37.5C 36.8333,36.8333 36.1667,36.1667 35.5,35.5C 35.5,34.5 35.5,33.5 35.5,32.5C 36.391,31.8902 37.391,31.5569 38.5,31.5 Z"/></g>
<g><path style="opacity:1" fill="#76cde7" d="M 39.5,35.5 C 40.3686,37.717 40.702,40.0504 40.5,42.5C 39.8333,42.8333 39.1667,43.1667 38.5,43.5C 38.5,42.8333 38.1667,42.5 37.5,42.5C 37.5,40.8333 37.5,39.1667 37.5,37.5C 37.5,36.1667 38.1667,35.5 39.5,35.5 Z"/></g>
<g><path style="opacity:0.11" fill="#96ddef" d="M 38.5,31.5 C 41.7058,33.5843 43.0391,36.5843 42.5,40.5C 41.6618,40.8417 41.3284,41.5084 41.5,42.5C 41.1667,42.5 40.8333,42.5 40.5,42.5C 40.702,40.0504 40.3686,37.717 39.5,35.5C 39.1667,34.1667 38.8333,32.8333 38.5,31.5 Z"/></g>
<g><path style="opacity:1" fill="#259cbd" d="M 55.5,33.5 C 56.1667,34.1667 56.8333,34.8333 57.5,35.5C 56.0413,35.4326 54.7079,35.7659 53.5,36.5C 53.2893,34.5759 52.6226,34.2426 51.5,35.5C 50.6236,35.6309 49.9569,35.2975 49.5,34.5C 51.396,33.5344 53.396,33.2011 55.5,33.5 Z"/></g>
<g><path style="opacity:1" fill="#0cacc9" d="M -0.5,34.5 C -0.166667,34.5 0.166667,34.5 0.5,34.5C 2.12377,34.3601 3.29044,35.0267 4,36.5C 4.67076,35.7476 5.5041,35.4142 6.5,35.5C 6.16667,36.1667 5.83333,36.8333 5.5,37.5C 5.16667,38.1667 4.83333,38.8333 4.5,39.5C 4.5,41.8333 4.5,44.1667 4.5,46.5C 3.83652,44.9581 3.16985,43.2914 2.5,41.5C 1.81654,41.1373 1.14987,40.8039 0.5,40.5C 0.5,39.8333 0.166667,39.5 -0.5,39.5C -0.5,37.8333 -0.5,36.1667 -0.5,34.5 Z"/></g>
<g><path style="opacity:1" fill="#25accf" d="M 53.5,36.5 C 53.7148,38.1788 53.0481,39.1788 51.5,39.5C 51.6716,38.5084 51.3382,37.8417 50.5,37.5C 50.8333,36.8333 51.1667,36.1667 51.5,35.5C 52.6226,34.2426 53.2893,34.5759 53.5,36.5 Z"/></g>
<g><path style="opacity:1" fill="#2ba5bf" d="M 61.5,35.5 C 62.1556,36.2778 62.9889,36.9444 64,37.5C 65.0299,37.1639 65.5299,36.4972 65.5,35.5C 67.1042,36.287 67.7709,37.6203 67.5,39.5C 66.4168,39.4606 65.4168,39.1272 64.5,38.5C 63.8589,39.9935 62.8589,40.9935 61.5,41.5C 61.1667,41.5 60.8333,41.5 60.5,41.5C 60.8333,39.5 61.1667,37.5 61.5,35.5 Z"/></g>
<g><path style="opacity:1" fill="#10a6c4" d="M 123.5,36.5 C 124.5,36.5 125.5,36.5 126.5,36.5C 126.5,37.5 126.5,38.5 126.5,39.5C 125.833,39.8333 125.167,40.1667 124.5,40.5C 124.167,40.5 123.833,40.5 123.5,40.5C 123.5,39.1667 123.5,37.8333 123.5,36.5 Z"/></g>
<g><path style="opacity:1" fill="#23a1bb" d="M 162.5,35.5 C 161.508,37.4561 160.508,39.4561 159.5,41.5C 158.833,41.5 158.167,41.5 157.5,41.5C 157.5,40.8333 157.5,40.1667 157.5,39.5C 157.472,37.4176 158.139,35.5843 159.5,34C 160.998,33.4153 161.998,33.9153 162.5,35.5 Z"/></g>
<g><path style="opacity:0.004" fill="#00fffe" d="M 164.5,37.5 C 165.833,38.1667 165.833,38.1667 164.5,37.5 Z"/></g>
<g><path style="opacity:1" fill="#23bddb" d="M 30.5,37.5 C 31.8333,37.5 33.1667,37.5 34.5,37.5C 34.33,38.8221 34.6634,39.9887 35.5,41C 34.9558,41.7172 34.2891,42.2172 33.5,42.5C 33.7148,40.8212 33.0481,39.8212 31.5,39.5C 30.6618,39.1583 30.3284,38.4916 30.5,37.5 Z"/></g>
<g><path style="opacity:1" fill="#17a8b9" d="M 162.5,35.5 C 163.239,35.369 163.906,35.5357 164.5,36C 163.748,36.6708 163.414,37.5041 163.5,38.5C 163.047,39.4584 162.381,40.2917 161.5,41C 164.113,42.0712 164.113,42.9045 161.5,43.5C 160.833,43.5 160.167,43.5 159.5,43.5C 159.5,42.8333 159.5,42.1667 159.5,41.5C 160.508,39.4561 161.508,37.4561 162.5,35.5 Z"/></g>
<g><path style="opacity:0.533" fill="#3597a9" d="M 80.5,39.5 C 80.1667,40.1667 79.8333,40.8333 79.5,41.5C 79.1667,41.5 78.8333,41.5 78.5,41.5C 77.6522,40.375 76.6522,40.375 75.5,41.5C 75.1583,40.6618 74.4916,40.3284 73.5,40.5C 75.6548,38.466 77.9882,38.1326 80.5,39.5 Z"/></g>
<g><path style="opacity:0.525" fill="#299fb6" d="M 86.5,39.5 C 87.9187,38.5489 89.5853,38.2155 91.5,38.5C 93.0481,38.8212 93.7148,39.8212 93.5,41.5C 93.1667,41.5 92.8333,41.5 92.5,41.5C 92.5,40.8333 92.1667,40.5 91.5,40.5C 89.9582,39.6993 88.2915,39.366 86.5,39.5 Z"/></g>
<g><path style="opacity:0.608" fill="#16a9b9" d="M 91.5,38.5 C 93.6618,37.5829 95.9952,37.5829 98.5,38.5C 98.5,39.1667 98.1667,39.5 97.5,39.5C 96.1667,39.8333 96.1667,40.1667 97.5,40.5C 96.205,41.4884 94.8717,42.4884 93.5,43.5C 93.5,42.8333 93.5,42.1667 93.5,41.5C 93.7148,39.8212 93.0481,38.8212 91.5,38.5 Z"/></g>
<g><path style="opacity:1" fill="#27a2b1" d="M 134.5,39.5 C 136.833,38.1667 139.167,38.1667 141.5,39.5C 141.672,40.4916 141.338,41.1583 140.5,41.5C 139.833,41.1667 139.167,40.8333 138.5,40.5C 137.432,39.5655 136.099,39.2322 134.5,39.5 Z"/></g>
<g><path style="opacity:1" fill="#1bbdd3" d="M 35.5,35.5 C 36.1667,36.1667 36.8333,36.8333 37.5,37.5C 37.5,39.1667 37.5,40.8333 37.5,42.5C 37.5,44.1667 37.5,45.8333 37.5,47.5C 36.5275,49.1392 35.1942,50.4726 33.5,51.5C 33.5,50.8333 33.5,50.1667 33.5,49.5C 33.5,48.5 33.5,47.5 33.5,46.5C 33.5,45.1667 33.5,43.8333 33.5,42.5C 34.2891,42.2172 34.9558,41.7172 35.5,41C 34.6634,39.9887 34.33,38.8221 34.5,37.5C 34.3284,36.5084 34.6618,35.8417 35.5,35.5 Z"/></g>
<g><path style="opacity:1" fill="#1fabbd" d="M 57.5,35.5 C 57.5,38.1667 57.5,40.8333 57.5,43.5C 57.1667,43.5 56.8333,43.5 56.5,43.5C 56.0269,42.0937 55.0269,41.427 53.5,41.5C 51.7973,42.6602 51.1307,41.9935 51.5,39.5C 53.0481,39.1788 53.7148,38.1788 53.5,36.5C 54.7079,35.7659 56.0413,35.4326 57.5,35.5 Z"/></g>
<g><path style="opacity:1" fill="#2ca7b6" d="M 67.5,39.5 C 66.962,41.1172 66.6287,42.7839 66.5,44.5C 64.9505,43.5592 63.2838,42.8925 61.5,42.5C 61.5,42.1667 61.5,41.8333 61.5,41.5C 62.8589,40.9935 63.8589,39.9935 64.5,38.5C 65.4168,39.1272 66.4168,39.4606 67.5,39.5 Z"/></g>
<g><path style="opacity:1" fill="#23a4c5" d="M 85.5,40.5 C 85.5,39.8333 85.8333,39.5 86.5,39.5C 88.2915,39.366 89.9582,39.6993 91.5,40.5C 91.1667,41.1667 90.8333,41.8333 90.5,42.5C 88.8333,41.8333 87.1667,41.1667 85.5,40.5 Z"/></g>
<g><path style="opacity:0.192" fill="#17c7dd" d="M 106.5,36.5 C 106.167,37.1667 105.833,37.8333 105.5,38.5C 103.545,38.7986 102.211,39.7986 101.5,41.5C 100.833,41.8333 100.167,42.1667 99.5,42.5C 98.5291,41.0379 98.8624,39.7046 100.5,38.5C 100.5,38.1667 100.5,37.8333 100.5,37.5C 101.15,37.8039 101.817,38.1373 102.5,38.5C 103.622,37.3698 104.956,36.7031 106.5,36.5 Z"/></g>
<g><path style="opacity:1" fill="#0eb0c2" d="M 105.5,38.5 C 105.12,40.698 105.787,42.3646 107.5,43.5C 107.5,44.1667 107.5,44.8333 107.5,45.5C 106.833,45.5 106.167,45.5 105.5,45.5C 104.833,45.5 104.167,45.5 103.5,45.5C 102.262,45.19 102.262,44.69 103.5,44C 102.906,43.5357 102.239,43.369 101.5,43.5C 101.5,42.8333 101.5,42.1667 101.5,41.5C 102.211,39.7986 103.545,38.7986 105.5,38.5 Z"/></g>
<g><path style="opacity:1" fill="#1fb8c9" d="M 119.5,38.5 C 116.903,38.7208 116.903,39.2208 119.5,40C 117.963,41.1096 117.297,42.6096 117.5,44.5C 116.833,44.5 116.5,44.8333 116.5,45.5C 114.952,45.8212 114.285,46.8212 114.5,48.5C 114.5,49.1667 114.167,49.5 113.5,49.5C 113.141,47.2341 113.808,45.4007 115.5,44C 114.5,43.6667 113.5,43.3333 112.5,43C 113.883,41.7292 114.883,40.2292 115.5,38.5C 116.833,37.1667 118.167,37.1667 119.5,38.5 Z"/></g>
<g><path style="opacity:0.024" fill="#2dd6d6" d="M 123.5,36.5 C 123.5,37.8333 123.5,39.1667 123.5,40.5C 123.5,43.1667 123.5,45.8333 123.5,48.5C 123.167,48.5 122.833,48.5 122.5,48.5C 122.715,46.8212 122.048,45.8212 120.5,45.5C 123.167,44.1667 123.167,42.8333 120.5,41.5C 120.5,40.8333 120.833,40.5 121.5,40.5C 122.167,39.1667 122.833,37.8333 123.5,36.5 Z"/></g>
<g><path style="opacity:1" fill="#0aaab5" d="M 126.5,39.5 C 126.833,39.5 127.167,39.5 127.5,39.5C 127.5,40.1667 127.833,40.5 128.5,40.5C 128.5,41.1667 128.5,41.8333 128.5,42.5C 128.167,42.5 127.833,42.5 127.5,42.5C 126.391,42.5569 125.391,42.8902 124.5,43.5C 124.5,42.5 124.5,41.5 124.5,40.5C 125.167,40.1667 125.833,39.8333 126.5,39.5 Z"/></g>
<g><path style="opacity:0.004" fill="#00fffe" d="M 165.5,40.5 C 166.833,41.1667 166.833,41.1667 165.5,40.5 Z"/></g>
<g><path style="opacity:0.439" fill="#25ccdf" d="M 31.5,39.5 C 33.0481,39.8212 33.7148,40.8212 33.5,42.5C 33.5,43.8333 33.5,45.1667 33.5,46.5C 32.8333,46.1667 32.1667,45.8333 31.5,45.5C 31.5,43.5 31.5,41.5 31.5,39.5 Z"/></g>
<g><path style="opacity:1" fill="#0ba3c1" d="M 53.5,41.5 C 55.0269,41.427 56.0269,42.0937 56.5,43.5C 56.5,44.1667 56.5,44.8333 56.5,45.5C 55.5,45.5 54.5,45.5 53.5,45.5C 53.5,44.1667 53.5,42.8333 53.5,41.5 Z"/></g>
<g><path style="opacity:1" fill="#1ba4cc" d="M 119.5,38.5 C 120.5,38.8333 121.167,39.5 121.5,40.5C 120.833,40.5 120.5,40.8333 120.5,41.5C 120.5,43.5 119.5,44.5 117.5,44.5C 117.297,42.6096 117.963,41.1096 119.5,40C 116.903,39.2208 116.903,38.7208 119.5,38.5 Z"/></g>
<g><path style="opacity:1" fill="#1db0ce" d="M 134.5,39.5 C 136.099,39.2322 137.432,39.5655 138.5,40.5C 138.5,40.8333 138.5,41.1667 138.5,41.5C 136.084,42.9682 133.417,43.6349 130.5,43.5C 130.488,40.858 131.821,39.5246 134.5,39.5 Z"/></g>
<g><path style="opacity:1" fill="#06aaba" d="M 0.5,40.5 C 1.14987,40.8039 1.81654,41.1373 2.5,41.5C 3.16985,43.2914 3.83652,44.9581 4.5,46.5C 5.40397,47.209 5.73731,48.209 5.5,49.5C 4.39105,49.5569 3.39105,49.8902 2.5,50.5C 1.21543,47.4115 0.548766,44.0781 0.5,40.5 Z"/></g>
<g><path style="opacity:1" fill="#2ebecc" d="M 60.5,41.5 C 60.5,42.1667 60.8333,42.5 61.5,42.5C 63.2838,42.8925 64.9505,43.5592 66.5,44.5C 66.9321,45.7095 67.5987,46.7095 68.5,47.5C 68.1667,48.5 67.5,49.1667 66.5,49.5C 66.1667,49.5 65.8333,49.5 65.5,49.5C 65.6631,45.9652 64.3298,44.9652 61.5,46.5C 60.8333,46.8333 60.1667,47.1667 59.5,47.5C 59.7678,45.901 59.4345,44.5676 58.5,43.5C 58.5,42.1667 59.1667,41.5 60.5,41.5 Z"/></g>
<g><path style="opacity:1" fill="#1cabbc" d="M 73.5,40.5 C 74.4916,40.3284 75.1583,40.6618 75.5,41.5C 75.5,42.5 75.5,43.5 75.5,44.5C 73.8333,43.8333 72.1667,43.1667 70.5,42.5C 70.9731,41.0937 71.9731,40.427 73.5,40.5 Z"/></g>
<g><path style="opacity:1" fill="#1fa4be" d="M 80.5,39.5 C 81.5,39.8333 82.1667,40.5 82.5,41.5C 81.2426,42.6226 81.5759,43.2893 83.5,43.5C 83.5,44.1667 83.5,44.8333 83.5,45.5C 82.2921,44.7659 80.9587,44.4326 79.5,44.5C 79.5,43.5 79.5,42.5 79.5,41.5C 79.8333,40.8333 80.1667,40.1667 80.5,39.5 Z"/></g>
<g><path style="opacity:0.808" fill="#1ebed3" d="M 101.5,41.5 C 101.5,42.1667 101.5,42.8333 101.5,43.5C 101.5,46.1667 101.5,48.8333 101.5,51.5C 101.167,51.5 100.833,51.5 100.5,51.5C 99.8333,48.8333 99.1667,46.1667 98.5,43.5C 98.1667,43.5 97.8333,43.5 97.5,43.5C 97.8417,42.6618 98.5084,42.3284 99.5,42.5C 100.167,42.1667 100.833,41.8333 101.5,41.5 Z"/></g>
<g><path style="opacity:1" fill="#219bc0" d="M 176.5,39.5 C 176.34,41.153 175.674,42.4863 174.5,43.5C 173.566,42.4324 173.232,41.099 173.5,39.5C 174.652,38.375 175.652,38.375 176.5,39.5 Z"/></g>
<g><path style="opacity:1" fill="#7ccddc" d="M 40.5,42.5 C 40.8333,42.5 41.1667,42.5 41.5,42.5C 40.8505,44.4352 40.5172,46.4352 40.5,48.5C 38.7868,47.3646 38.1201,45.698 38.5,43.5C 39.1667,43.1667 39.8333,42.8333 40.5,42.5 Z"/></g>
<g><path style="opacity:1" fill="#1fa9ca" d="M 98.5,38.5 C 99.1667,38.5 99.8333,38.5 100.5,38.5C 98.8624,39.7046 98.5291,41.0379 99.5,42.5C 98.5084,42.3284 97.8417,42.6618 97.5,43.5C 97.5,43.8333 97.5,44.1667 97.5,44.5C 95.7508,46.5314 93.7508,46.8647 91.5,45.5C 91.8333,44.5 92.5,43.8333 93.5,43.5C 94.8717,42.4884 96.205,41.4884 97.5,40.5C 97.5,40.1667 97.5,39.8333 97.5,39.5C 98.1667,39.5 98.5,39.1667 98.5,38.5 Z"/></g>
<g><path style="opacity:0.635" fill="#42a6c6" d="M 157.5,39.5 C 157.5,40.1667 157.5,40.8333 157.5,41.5C 157.567,42.9587 157.234,44.2921 156.5,45.5C 156.158,46.3382 155.492,46.6716 154.5,46.5C 154.935,43.8427 155.935,41.5093 157.5,39.5 Z"/></g>
<g><path style="opacity:0.998" fill="#18a3bc" d="M 163.5,38.5 C 163.833,38.5 164.167,38.5 164.5,38.5C 164.263,39.791 164.596,40.791 165.5,41.5C 165.5,42.1667 165.5,42.8333 165.5,43.5C 165.38,44.5862 164.713,45.2528 163.5,45.5C 162.287,45.2528 161.62,44.5862 161.5,43.5C 164.113,42.9045 164.113,42.0712 161.5,41C 162.381,40.2917 163.047,39.4584 163.5,38.5 Z"/></g>
<g><path style="opacity:0.965" fill="#1e9db3" d="M 173.5,39.5 C 173.232,41.099 173.566,42.4324 174.5,43.5C 172.969,44.9245 173.302,45.5912 175.5,45.5C 175.88,47.698 175.213,49.3646 173.5,50.5C 173.5,49.1667 172.833,48.5 171.5,48.5C 173.069,45.4185 172.735,42.5851 170.5,40C 171.448,39.5172 172.448,39.3505 173.5,39.5 Z"/></g>
<g><path style="opacity:0.999" fill="#0ca6bb" d="M 176.5,39.5 C 177.451,40.9187 177.784,42.5853 177.5,44.5C 177.158,45.3382 176.492,45.6716 175.5,45.5C 173.302,45.5912 172.969,44.9245 174.5,43.5C 175.674,42.4863 176.34,41.153 176.5,39.5 Z"/></g>
<g><path style="opacity:0.965" fill="#20c4da" d="M 5.5,37.5 C 7.16441,38.9488 7.99775,40.9488 8,43.5C 8.77917,40.9028 9.27917,40.9028 9.5,43.5C 9.5,45.1667 9.5,46.8333 9.5,48.5C 6.70358,46.0954 5.03691,43.0954 4.5,39.5C 4.83333,38.8333 5.16667,38.1667 5.5,37.5 Z"/></g>
<g><path style="opacity:1" fill="#27c7d8" d="M 50.5,37.5 C 51.3382,37.8417 51.6716,38.5084 51.5,39.5C 51.1307,41.9935 51.7973,42.6602 53.5,41.5C 53.5,42.8333 53.5,44.1667 53.5,45.5C 53.3651,48.4175 54.0318,51.0842 55.5,53.5C 55.5,53.8333 55.5,54.1667 55.5,54.5C 54.5,54.5 53.5,54.5 52.5,54.5C 52.7148,52.8212 52.0481,51.8212 50.5,51.5C 50.5,46.8333 50.5,42.1667 50.5,37.5 Z"/></g>
<g><path style="opacity:0.8" fill="#33c6e5" d="M 56.5,43.5 C 56.8333,43.5 57.1667,43.5 57.5,43.5C 57.8333,43.5 58.1667,43.5 58.5,43.5C 59.4345,44.5676 59.7678,45.901 59.5,47.5C 58.8333,47.5 58.5,47.8333 58.5,48.5C 57.2651,50.017 57.2651,51.6837 58.5,53.5C 58.0431,54.2975 57.3764,54.6309 56.5,54.5C 56.1667,54.5 55.8333,54.5 55.5,54.5C 55.5,54.1667 55.5,53.8333 55.5,53.5C 56.4731,51.0521 56.8064,48.3854 56.5,45.5C 56.5,44.8333 56.5,44.1667 56.5,43.5 Z"/></g>
<g><path style="opacity:1" fill="#17aeca" d="M 115.5,38.5 C 114.883,40.2292 113.883,41.7292 112.5,43C 113.5,43.3333 114.5,43.6667 115.5,44C 113.808,45.4007 113.141,47.2341 113.5,49.5C 113.5,49.8333 113.5,50.1667 113.5,50.5C 111.933,49.3192 111.099,47.6526 111,45.5C 110.79,47.0581 110.29,48.3915 109.5,49.5C 109.843,47.5168 109.176,46.1834 107.5,45.5C 107.5,44.8333 107.5,44.1667 107.5,43.5C 107.709,42.0783 108.209,40.745 109,39.5C 109.333,39.8333 109.667,40.1667 110,40.5C 111.584,39.1387 113.418,38.472 115.5,38.5 Z"/></g>
<g><path style="opacity:0.273" fill="#4ab1da" d="M 120.5,41.5 C 123.167,42.8333 123.167,44.1667 120.5,45.5C 119.167,46.8333 117.833,46.8333 116.5,45.5C 116.5,44.8333 116.833,44.5 117.5,44.5C 119.5,44.5 120.5,43.5 120.5,41.5 Z"/></g>
<g><path style="opacity:1" fill="#0bbad9" d="M 4.5,39.5 C 5.03691,43.0954 6.70358,46.0954 9.5,48.5C 10.1098,49.391 10.4431,50.391 10.5,51.5C 8.83333,50.8333 7.16667,50.1667 5.5,49.5C 5.73731,48.209 5.40397,47.209 4.5,46.5C 4.5,44.1667 4.5,41.8333 4.5,39.5 Z"/></g>
<g><path style="opacity:0.524" fill="#95e5f2" d="M 42.5,40.5 C 42.8039,41.1499 43.1373,41.8165 43.5,42.5C 42.9204,45.3106 42.2537,47.9773 41.5,50.5C 41.1667,49.8333 40.8333,49.1667 40.5,48.5C 40.5172,46.4352 40.8505,44.4352 41.5,42.5C 41.3284,41.5084 41.6618,40.8417 42.5,40.5 Z"/></g>
<g><path style="opacity:0.11" fill="#20cee3" d="M 78.5,41.5 C 78.8333,41.5 79.1667,41.5 79.5,41.5C 79.5,42.5 79.5,43.5 79.5,44.5C 80.9587,44.4326 82.2921,44.7659 83.5,45.5C 83.1667,46.1667 82.8333,46.8333 82.5,47.5C 80.5,46.1667 78.5,46.1667 76.5,47.5C 76.0618,47.5654 75.7284,47.3988 75.5,47C 76.3805,46.2917 77.0472,45.4584 77.5,44.5C 77.9382,44.5654 78.2716,44.3988 78.5,44C 77.8333,43.6667 77.1667,43.3333 76.5,43C 77.4158,42.7216 78.0825,42.2216 78.5,41.5 Z"/></g>
<g><path style="opacity:1" fill="#17aabc" d="M 85.5,40.5 C 87.1667,41.1667 88.8333,41.8333 90.5,42.5C 89.032,43.7791 88.3653,45.4458 88.5,47.5C 87.5,47.5 86.5,47.5 85.5,47.5C 85.9639,44.1317 85.6305,42.7984 84.5,43.5C 84.1667,43.5 83.8333,43.5 83.5,43.5C 81.5759,43.2893 81.2426,42.6226 82.5,41.5C 82.4346,41.9382 82.6012,42.2716 83,42.5C 83.4169,41.244 84.2502,40.5774 85.5,40.5 Z"/></g>
<g><path style="opacity:1" fill="#15aec4" d="M 138.5,40.5 C 139.167,40.8333 139.833,41.1667 140.5,41.5C 141.243,45.423 141.243,49.423 140.5,53.5C 139.566,52.4324 139.232,51.099 139.5,49.5C 139.721,46.7212 139.388,44.0545 138.5,41.5C 138.5,41.1667 138.5,40.8333 138.5,40.5 Z"/></g>
<g><path style="opacity:1" fill="#1aacc3" d="M 70.5,42.5 C 72.1667,43.1667 73.8333,43.8333 75.5,44.5C 76.1667,44.5 76.8333,44.5 77.5,44.5C 77.0472,45.4584 76.3805,46.2917 75.5,47C 75.7284,47.3988 76.0618,47.5654 76.5,47.5C 76.3893,48.1174 76.056,48.6174 75.5,49C 76.4158,49.2784 77.0825,49.7784 77.5,50.5C 76.6618,50.8417 76.3284,51.5084 76.5,52.5C 75.3684,53.3543 74.035,53.3543 72.5,52.5C 71.8333,51.8333 71.1667,51.1667 70.5,50.5C 69.8333,49.5 69.1667,48.5 68.5,47.5C 68.3433,46.1266 68.51,44.7932 69,43.5C 70.1068,44.7119 70.6068,44.3786 70.5,42.5 Z"/></g>
<g><path style="opacity:1" fill="#09a3bb" d="M 101.5,43.5 C 102.239,43.369 102.906,43.5357 103.5,44C 102.262,44.69 102.262,45.19 103.5,45.5C 102.248,47.3388 102.248,49.1722 103.5,51C 102.906,51.4643 102.239,51.631 101.5,51.5C 101.5,48.8333 101.5,46.1667 101.5,43.5 Z"/></g>
<g><path style="opacity:0.016" fill="#1abcff" d="M 105.5,45.5 C 106.167,45.5 106.833,45.5 107.5,45.5C 107.5,47.1667 107.5,48.8333 107.5,50.5C 106.833,50.8333 106.167,51.1667 105.5,51.5C 105.5,50.8333 105.5,50.1667 105.5,49.5C 105.5,48.1667 105.5,46.8333 105.5,45.5 Z"/></g>
<g><path style="opacity:1" fill="#0ca5bc" d="M 127.5,42.5 C 127.5,46.1667 127.5,49.8333 127.5,53.5C 126.5,53.5 125.5,53.5 124.5,53.5C 124.5,50.1667 124.5,46.8333 124.5,43.5C 125.391,42.8902 126.391,42.5569 127.5,42.5 Z"/></g>
<g><path style="opacity:0.591" fill="#2ed3e2" d="M 138.5,41.5 C 139.388,44.0545 139.721,46.7212 139.5,49.5C 138.833,49.5 138.5,49.8333 138.5,50.5C 137.399,49.1516 136.399,47.6516 135.5,46C 133.807,45.516 132.473,46.016 131.5,47.5C 131.567,46.0413 131.234,44.7079 130.5,43.5C 133.417,43.6349 136.084,42.9682 138.5,41.5 Z"/></g>
<g><path style="opacity:0.122" fill="#3cb3d2" d="M 156.5,45.5 C 157.833,45.5 159.167,45.5 160.5,45.5C 160.167,46.1667 159.833,46.8333 159.5,47.5C 157.901,47.2322 156.568,47.5655 155.5,48.5C 154.833,48.5 154.167,48.5 153.5,48.5C 153.328,47.5084 153.662,46.8417 154.5,46.5C 155.492,46.6716 156.158,46.3382 156.5,45.5 Z"/></g>
<g><path style="opacity:1" fill="#17b1c9" d="M 167.5,44.5 C 166.167,44.8333 166.167,45.1667 167.5,45.5C 167.5,46.5 167.5,47.5 167.5,48.5C 166.167,48.1667 164.833,47.8333 163.5,47.5C 162.508,47.3284 161.842,47.6618 161.5,48.5C 160.833,48.1667 160.167,47.8333 159.5,47.5C 159.833,46.8333 160.167,46.1667 160.5,45.5C 160.167,44.8333 159.833,44.1667 159.5,43.5C 160.167,43.5 160.833,43.5 161.5,43.5C 161.62,44.5862 162.287,45.2528 163.5,45.5C 164.713,45.2528 165.38,44.5862 165.5,43.5C 166.925,41.9689 167.591,42.3023 167.5,44.5 Z"/></g>
<g><path style="opacity:1" fill="#7cdbeb" d="M 37.5,42.5 C 38.1667,42.5 38.5,42.8333 38.5,43.5C 38.1201,45.698 38.7868,47.3646 40.5,48.5C 40.8333,49.1667 41.1667,49.8333 41.5,50.5C 41.2503,52.674 40.2503,54.3406 38.5,55.5C 38.4989,54.2455 38.1656,52.9122 37.5,51.5C 37.5,50.1667 37.5,48.8333 37.5,47.5C 37.5,45.8333 37.5,44.1667 37.5,42.5 Z"/></g>
<g><path style="opacity:1" fill="#12a7b9" d="M 65.5,49.5 C 64.7611,49.369 64.0944,49.5357 63.5,50C 65.0368,51.1096 65.7035,52.6096 65.5,54.5C 64.391,54.4431 63.391,54.1098 62.5,53.5C 62.552,51.0971 62.2186,48.7638 61.5,46.5C 64.3298,44.9652 65.6631,45.9652 65.5,49.5 Z"/></g>
<g><path style="opacity:0.027" fill="#3ec6e9" d="M 85.5,47.5 C 85.6287,49.2161 85.962,50.8828 86.5,52.5C 84.8595,51.853 83.5261,50.853 82.5,49.5C 82.5,48.8333 82.5,48.1667 82.5,47.5C 82.8333,46.8333 83.1667,46.1667 83.5,45.5C 84.3382,45.1583 84.6716,44.4916 84.5,43.5C 85.6305,42.7984 85.9639,44.1317 85.5,47.5 Z"/></g>
<g><path style="opacity:0.953" fill="#20bdcb" d="M 92.5,41.5 C 92.8333,41.5 93.1667,41.5 93.5,41.5C 93.5,42.1667 93.5,42.8333 93.5,43.5C 92.5,43.8333 91.8333,44.5 91.5,45.5C 91.5,46.8333 91.5,48.1667 91.5,49.5C 89.8212,49.7148 88.8212,49.0481 88.5,47.5C 88.3653,45.4458 89.032,43.7791 90.5,42.5C 91.4916,42.6716 92.1583,42.3382 92.5,41.5 Z"/></g>
<g><path style="opacity:1" fill="#0caac9" d="M 103.5,45.5 C 104.167,45.5 104.833,45.5 105.5,45.5C 105.5,46.8333 105.5,48.1667 105.5,49.5C 104.566,50.5676 104.232,51.901 104.5,53.5C 103.167,53.5 101.833,53.5 100.5,53.5C 100.5,52.8333 100.5,52.1667 100.5,51.5C 100.833,51.5 101.167,51.5 101.5,51.5C 102.239,51.631 102.906,51.4643 103.5,51C 102.248,49.1722 102.248,47.3388 103.5,45.5 Z"/></g>
<g><path style="opacity:0.016" fill="#18c1da" d="M 167.5,44.5 C 168.736,46.649 169.736,48.9823 170.5,51.5C 169.566,52.5676 169.232,53.901 169.5,55.5C 167.833,55.5 166.167,55.5 164.5,55.5C 165.167,54.8333 165.833,54.1667 166.5,53.5C 167.289,53.2172 167.956,52.7172 168.5,52C 167.663,50.9887 167.33,49.8221 167.5,48.5C 167.5,47.5 167.5,46.5 167.5,45.5C 167.5,45.1667 167.5,44.8333 167.5,44.5 Z"/></g>
<g><path style="opacity:0.522" fill="#31c2e2" d="M -0.5,39.5 C 0.166667,39.5 0.5,39.8333 0.5,40.5C 0.548766,44.0781 1.21543,47.4115 2.5,50.5C 3.62495,51.6522 3.62495,52.6522 2.5,53.5C 1.72813,52.3065 0.728127,51.3065 -0.5,50.5C -0.5,46.8333 -0.5,43.1667 -0.5,39.5 Z"/></g>
<g><path style="opacity:1" fill="#2abde5" d="M 31.5,45.5 C 32.1667,45.8333 32.8333,46.1667 33.5,46.5C 33.5,47.5 33.5,48.5 33.5,49.5C 32.8826,49.6107 32.3826,49.944 32,50.5C 31.5831,49.244 30.7498,48.5774 29.5,48.5C 29.9321,47.2905 30.5987,46.2905 31.5,45.5 Z"/></g>
<g><path style="opacity:0.125" fill="#15c1d2" d="M 107.5,45.5 C 109.176,46.1834 109.843,47.5168 109.5,49.5C 109.5,50.1667 109.5,50.8333 109.5,51.5C 108.833,51.1667 108.167,50.8333 107.5,50.5C 107.5,48.8333 107.5,47.1667 107.5,45.5 Z"/></g>
<g><path style="opacity:1" fill="#0ba4ba" d="M 53.5,45.5 C 54.5,45.5 55.5,45.5 56.5,45.5C 56.8064,48.3854 56.4731,51.0521 55.5,53.5C 54.0318,51.0842 53.3651,48.4175 53.5,45.5 Z"/></g>
<g><path style="opacity:0.816" fill="#38d8ef" d="M 61.5,46.5 C 62.2186,48.7638 62.552,51.0971 62.5,53.5C 61.8333,53.5 61.1667,53.5 60.5,53.5C 60.6716,52.5084 60.3382,51.8417 59.5,51.5C 59.7373,50.209 59.404,49.209 58.5,48.5C 58.5,47.8333 58.8333,47.5 59.5,47.5C 60.1667,47.1667 60.8333,46.8333 61.5,46.5 Z"/></g>
<g><path style="opacity:0.024" fill="#2ccafa" d="M 68.5,47.5 C 69.1667,48.5 69.8333,49.5 70.5,50.5C 70.6309,51.3764 70.2975,52.0431 69.5,52.5C 68.5712,51.4502 67.9046,51.4502 67.5,52.5C 66.596,51.791 66.2627,50.791 66.5,49.5C 67.5,49.1667 68.1667,48.5 68.5,47.5 Z"/></g>
<g><path style="opacity:0.125" fill="#40e3f5" d="M 82.5,49.5 C 83.5261,50.853 84.8595,51.853 86.5,52.5C 86.5,53.1667 86.1667,53.5 85.5,53.5C 84.8333,53.5 84.1667,53.5 83.5,53.5C 82.6935,52.2719 81.6935,51.2719 80.5,50.5C 80.8417,49.6618 81.5084,49.3284 82.5,49.5 Z"/></g>
<g><path style="opacity:1" fill="#13aac4" d="M 135.5,52.5 C 134.791,53.404 133.791,53.7373 132.5,53.5C 131.833,53.5 131.5,53.1667 131.5,52.5C 131.5,51.5 131.5,50.5 131.5,49.5C 134.677,46.8308 136.01,47.8308 135.5,52.5 Z"/></g>
<g><path style="opacity:1" fill="#16a2b9" d="M 141.5,39.5 C 143.448,41.3204 144.448,43.6538 144.5,46.5C 142.917,48.5078 141.917,50.8411 141.5,53.5C 141.167,53.5 140.833,53.5 140.5,53.5C 141.243,49.423 141.243,45.423 140.5,41.5C 141.338,41.1583 141.672,40.4916 141.5,39.5 Z"/></g>
<g><path style="opacity:1" fill="#33b1d3" d="M 144.5,46.5 C 144.167,49.8333 143.833,53.1667 143.5,56.5C 142.833,56.5 142.167,56.5 141.5,56.5C 141.5,55.5 141.5,54.5 141.5,53.5C 141.917,50.8411 142.917,48.5078 144.5,46.5 Z"/></g>
<g><path style="opacity:0.984" fill="#06aad3" d="M 177.5,44.5 C 178.461,46.2646 178.795,48.2646 178.5,50.5C 178.5,50.8333 178.5,51.1667 178.5,51.5C 177.71,50.3915 177.21,49.0581 177,47.5C 176.808,49.5767 176.308,51.5767 175.5,53.5C 174.081,52.9953 173.415,51.9953 173.5,50.5C 175.213,49.3646 175.88,47.698 175.5,45.5C 176.492,45.6716 177.158,45.3382 177.5,44.5 Z"/></g>
<g><path style="opacity:1" fill="#0ea3c1" d="M 113.5,50.5 C 113.5,50.8333 113.5,51.1667 113.5,51.5C 112.368,52.3543 111.035,52.3543 109.5,51.5C 109.5,50.8333 109.5,50.1667 109.5,49.5C 110.29,48.3915 110.79,47.0581 111,45.5C 111.099,47.6526 111.933,49.3192 113.5,50.5 Z"/></g>
<g><path style="opacity:0.812" fill="#28bfda" d="M 127.5,42.5 C 127.833,42.5 128.167,42.5 128.5,42.5C 128.5,43.1667 128.5,43.8333 128.5,44.5C 128.279,47.2788 128.612,49.9455 129.5,52.5C 128.833,52.8333 128.167,53.1667 127.5,53.5C 127.5,49.8333 127.5,46.1667 127.5,42.5 Z"/></g>
<g><path style="opacity:0.165" fill="#23e7f7" d="M 128.5,44.5 C 129.167,45.8333 129.833,47.1667 130.5,48.5C 130.5,49.1667 130.833,49.5 131.5,49.5C 131.5,50.5 131.5,51.5 131.5,52.5C 130.662,52.8417 130.328,53.5084 130.5,54.5C 129.662,54.1583 129.328,53.4916 129.5,52.5C 128.612,49.9455 128.279,47.2788 128.5,44.5 Z"/></g>
<g><path style="opacity:0.971" fill="#05a3ba" d="M 163.5,47.5 C 164.833,47.8333 166.167,48.1667 167.5,48.5C 167.33,49.8221 167.663,50.9887 168.5,52C 167.956,52.7172 167.289,53.2172 166.5,53.5C 164.769,52.0145 163.769,50.0145 163.5,47.5 Z"/></g>
<g><path style="opacity:0.406" fill="#0abfdb" d="M 178.5,51.5 C 178.144,53.1898 177.144,54.1898 175.5,54.5C 174.5,54.5 173.5,54.5 172.5,54.5C 172.784,52.5853 172.451,50.9187 171.5,49.5C 171.5,49.1667 171.5,48.8333 171.5,48.5C 172.833,48.5 173.5,49.1667 173.5,50.5C 173.415,51.9953 174.081,52.9953 175.5,53.5C 176.308,51.5767 176.808,49.5767 177,47.5C 177.21,49.0581 177.71,50.3915 178.5,51.5 Z"/></g>
<g><path style="opacity:1" fill="#06bccf" d="M 5.5,49.5 C 7.16667,50.1667 8.83333,50.8333 10.5,51.5C 10.8333,52.1667 11.1667,52.8333 11.5,53.5C 11.5,54.5 11.5,55.5 11.5,56.5C 10.8333,56.1667 10.1667,55.8333 9.5,55.5C 9.16667,54.5 8.5,53.8333 7.5,53.5C 6.39952,52.3951 5.73286,51.0618 5.5,49.5 Z"/></g>
<g><path style="opacity:1" fill="#20c3dd" d="M 29.5,48.5 C 30.7498,48.5774 31.5831,49.244 32,50.5C 32.3826,49.944 32.8826,49.6107 33.5,49.5C 33.5,50.1667 33.5,50.8333 33.5,51.5C 31.8333,52.1667 30.1667,52.8333 28.5,53.5C 29.2341,52.2921 29.5674,50.9587 29.5,49.5C 29.5,49.1667 29.5,48.8333 29.5,48.5 Z"/></g>
<g><path style="opacity:0.49" fill="#3ad1f4" d="M 77.5,50.5 C 78.5,50.5 79.5,50.5 80.5,50.5C 81.6935,51.2719 82.6935,52.2719 83.5,53.5C 82.5,53.5 81.5,53.5 80.5,53.5C 79.4324,52.5655 78.099,52.2322 76.5,52.5C 76.3284,51.5084 76.6618,50.8417 77.5,50.5 Z"/></g>
<g><path style="opacity:1" fill="#15a8c4" d="M 85.5,47.5 C 86.5,47.5 87.5,47.5 88.5,47.5C 88.8212,49.0481 89.8212,49.7148 91.5,49.5C 92.1667,49.5 92.5,49.8333 92.5,50.5C 91.7611,50.369 91.0944,50.5357 90.5,51C 91.365,52.3588 92.365,53.5255 93.5,54.5C 90.812,54.8342 88.4786,54.1675 86.5,52.5C 85.962,50.8828 85.6287,49.2161 85.5,47.5 Z"/></g>
<g><path style="opacity:0.31" fill="#3ee0eb" d="M 114.5,48.5 C 115.472,50.4931 116.805,50.8264 118.5,49.5C 119.332,50.3285 118.999,51.1618 117.5,52C 116.423,52.4696 115.423,52.3029 114.5,51.5C 114.167,51.5 113.833,51.5 113.5,51.5C 113.5,51.1667 113.5,50.8333 113.5,50.5C 113.5,50.1667 113.5,49.8333 113.5,49.5C 114.167,49.5 114.5,49.1667 114.5,48.5 Z"/></g>
<g><path style="opacity:0.059" fill="#2ed3f0" d="M 138.5,50.5 C 138.179,52.0481 137.179,52.7148 135.5,52.5C 136.01,47.8308 134.677,46.8308 131.5,49.5C 130.833,49.5 130.5,49.1667 130.5,48.5C 130.5,47.8333 130.833,47.5 131.5,47.5C 132.473,46.016 133.807,45.516 135.5,46C 136.399,47.6516 137.399,49.1516 138.5,50.5 Z"/></g>
<g><path style="opacity:0.384" fill="#3dc6e3" d="M 153.5,48.5 C 154.167,48.5 154.833,48.5 155.5,48.5C 155.84,50.679 156.84,52.5123 158.5,54C 157.003,56.207 155.003,56.8736 152.5,56C 153.167,55.6667 153.833,55.3333 154.5,55C 153.062,54.7811 151.729,54.2811 150.5,53.5C 151.763,51.9713 152.763,50.3046 153.5,48.5 Z"/></g>
<g><path style="opacity:1" fill="#1fa9bd" d="M 5.5,49.5 C 5.73286,51.0618 6.39952,52.3951 7.5,53.5C 6.02141,54.8258 5.35474,56.1591 5.5,57.5C 4.02561,56.5637 3.02561,55.2303 2.5,53.5C 3.62495,52.6522 3.62495,51.6522 2.5,50.5C 3.39105,49.8902 4.39105,49.5569 5.5,49.5 Z"/></g>
<g><path style="opacity:1" fill="#57ddeb" d="M 9.5,43.5 C 9.83333,43.5 10.1667,43.5 10.5,43.5C 10.9532,47.9542 13.2865,50.9542 17.5,52.5C 17.5,53.1667 17.5,53.8333 17.5,54.5C 16.0387,53.3143 14.7054,53.3143 13.5,54.5C 12.8333,54.1667 12.1667,53.8333 11.5,53.5C 11.1667,52.8333 10.8333,52.1667 10.5,51.5C 10.4431,50.391 10.1098,49.391 9.5,48.5C 9.5,46.8333 9.5,45.1667 9.5,43.5 Z"/></g>
<g><path style="opacity:0.155" fill="#3ed8f0" d="M 29.5,49.5 C 29.5674,50.9587 29.2341,52.2921 28.5,53.5C 27.609,54.1098 26.609,54.4431 25.5,54.5C 25.1667,54.5 24.8333,54.5 24.5,54.5C 24.8333,53.8333 25.1667,53.1667 25.5,52.5C 26.4363,51.0256 27.7697,50.0256 29.5,49.5 Z"/></g>
<g><path style="opacity:1" fill="#64d3e4" d="M 37.5,47.5 C 37.5,48.8333 37.5,50.1667 37.5,51.5C 35.7077,53.5693 33.3744,54.9026 30.5,55.5C 31.5,54.1667 32.5,52.8333 33.5,51.5C 35.1942,50.4726 36.5275,49.1392 37.5,47.5 Z"/></g>
<g><path style="opacity:0.941" fill="#0cafc2" d="M 72.5,53.5 C 72.5,53.1667 72.5,52.8333 72.5,52.5C 74.035,53.3543 75.3684,53.3543 76.5,52.5C 78.099,52.2322 79.4324,52.5655 80.5,53.5C 77.8333,54.8333 75.1667,54.8333 72.5,53.5 Z"/></g>
<g><path style="opacity:1" fill="#27c4de" d="M 96.5,49.5 C 96.7271,51.9328 95.7271,53.5994 93.5,54.5C 92.365,53.5255 91.365,52.3588 90.5,51C 91.0944,50.5357 91.7611,50.369 92.5,50.5C 93.8333,50.1667 95.1667,49.8333 96.5,49.5 Z"/></g>
<g><path style="opacity:0.039" fill="#3eeaf9" d="M 98.5,43.5 C 99.1667,46.1667 99.8333,48.8333 100.5,51.5C 100.5,52.1667 100.5,52.8333 100.5,53.5C 99.8333,53.5 99.5,53.8333 99.5,54.5C 98.5041,54.5858 97.6708,54.2524 97,53.5C 96.5357,54.0944 96.369,54.7611 96.5,55.5C 93.3962,56.7752 90.3962,56.7752 87.5,55.5C 89.7354,55.7947 91.7354,55.4614 93.5,54.5C 95.7271,53.5994 96.7271,51.9328 96.5,49.5C 98.8466,48.3931 99.18,46.7264 97.5,44.5C 98.1667,44.5 98.5,44.1667 98.5,43.5 Z"/></g>
<g><path style="opacity:0.039" fill="#41f0f9" d="M 107.5,50.5 C 108.167,50.8333 108.833,51.1667 109.5,51.5C 110.167,52.8333 111.167,53.8333 112.5,54.5C 112.5,55.1667 112.5,55.8333 112.5,56.5C 110.95,55.5592 109.284,54.8925 107.5,54.5C 106.449,53.7777 105.782,52.7777 105.5,51.5C 106.167,51.1667 106.833,50.8333 107.5,50.5 Z"/></g>
<g><path style="opacity:1" fill="#12adc2" d="M 109.5,51.5 C 111.035,52.3543 112.368,52.3543 113.5,51.5C 113.833,51.5 114.167,51.5 114.5,51.5C 114.557,52.609 114.89,53.609 115.5,54.5C 114.5,54.5 113.5,54.5 112.5,54.5C 111.167,53.8333 110.167,52.8333 109.5,51.5 Z"/></g>
<g><path style="opacity:1" fill="#33bed2" d="M 118.5,49.5 C 119.348,48.375 120.348,48.375 121.5,49.5C 121.611,50.1174 121.944,50.6174 122.5,51C 121.058,51.3768 120.058,52.2101 119.5,53.5C 118.167,53.8333 116.833,54.1667 115.5,54.5C 114.89,53.609 114.557,52.609 114.5,51.5C 115.423,52.3029 116.423,52.4696 117.5,52C 118.999,51.1618 119.332,50.3285 118.5,49.5 Z"/></g>
<g><path style="opacity:0.075" fill="#58ecf8" d="M 122.5,48.5 C 122.833,48.5 123.167,48.5 123.5,48.5C 123.675,50.6208 123.341,52.6208 122.5,54.5C 122.5,54.8333 122.5,55.1667 122.5,55.5C 121.833,55.5 121.167,55.5 120.5,55.5C 122.031,54.0755 121.698,53.4088 119.5,53.5C 120.058,52.2101 121.058,51.3768 122.5,51C 121.944,50.6174 121.611,50.1174 121.5,49.5C 122.167,49.5 122.5,49.1667 122.5,48.5 Z"/></g>
<g><path style="opacity:0.69" fill="#2ccde2" d="M 139.5,49.5 C 139.232,51.099 139.566,52.4324 140.5,53.5C 140.833,53.5 141.167,53.5 141.5,53.5C 141.5,54.5 141.5,55.5 141.5,56.5C 140.833,56.1667 140.167,55.8333 139.5,55.5C 137.643,54.2463 135.643,54.2463 133.5,55.5C 132.702,55.0431 132.369,54.3764 132.5,53.5C 133.791,53.7373 134.791,53.404 135.5,52.5C 137.179,52.7148 138.179,52.0481 138.5,50.5C 138.5,49.8333 138.833,49.5 139.5,49.5 Z"/></g>
<g><path style="opacity:0.031" fill="#6ee0ff" d="M 17.5,52.5 C 20.1367,53.6303 22.8033,53.6303 25.5,52.5C 25.1667,53.1667 24.8333,53.8333 24.5,54.5C 22.1667,54.5 19.8333,54.5 17.5,54.5C 17.5,53.8333 17.5,53.1667 17.5,52.5 Z"/></g>
<g><path style="opacity:1" fill="#12a9c5" d="M 65.5,49.5 C 65.8333,49.5 66.1667,49.5 66.5,49.5C 66.2627,50.791 66.596,51.791 67.5,52.5C 68.6602,54.2027 67.9935,54.8693 65.5,54.5C 65.7035,52.6096 65.0368,51.1096 63.5,50C 64.0944,49.5357 64.7611,49.369 65.5,49.5 Z"/></g>
<g><path style="opacity:0.455" fill="#39d8f3" d="M 70.5,50.5 C 71.1667,51.1667 71.8333,51.8333 72.5,52.5C 72.5,52.8333 72.5,53.1667 72.5,53.5C 72.5,54.1667 72.5,54.8333 72.5,55.5C 71.5,54.1667 70.5,54.1667 69.5,55.5C 67.901,55.7678 66.5676,55.4345 65.5,54.5C 67.9935,54.8693 68.6602,54.2027 67.5,52.5C 67.9046,51.4502 68.5712,51.4502 69.5,52.5C 70.2975,52.0431 70.6309,51.3764 70.5,50.5 Z"/></g>
<g><path style="opacity:0.035" fill="#3edcf7" d="M 86.5,52.5 C 88.4786,54.1675 90.812,54.8342 93.5,54.5C 91.7354,55.4614 89.7354,55.7947 87.5,55.5C 86.1667,55.5 85.5,54.8333 85.5,53.5C 86.1667,53.5 86.5,53.1667 86.5,52.5 Z"/></g>
<g><path style="opacity:0.749" fill="#33c8e1" d="M 105.5,49.5 C 105.5,50.1667 105.5,50.8333 105.5,51.5C 105.782,52.7777 106.449,53.7777 107.5,54.5C 106.365,56.2132 104.698,56.8799 102.5,56.5C 102.918,55.7784 103.584,55.2784 104.5,55C 102.866,54.5065 101.199,54.3398 99.5,54.5C 99.5,53.8333 99.8333,53.5 100.5,53.5C 101.833,53.5 103.167,53.5 104.5,53.5C 104.232,51.901 104.566,50.5676 105.5,49.5 Z"/></g>
<g><path style="opacity:0.996" fill="#2dcbde" d="M 123.5,40.5 C 123.833,40.5 124.167,40.5 124.5,40.5C 124.5,41.5 124.5,42.5 124.5,43.5C 124.5,46.8333 124.5,50.1667 124.5,53.5C 125.5,53.5 126.5,53.5 127.5,53.5C 128.167,53.1667 128.833,52.8333 129.5,52.5C 129.328,53.4916 129.662,54.1583 130.5,54.5C 130.5,54.8333 130.5,55.1667 130.5,55.5C 130.167,55.5 129.833,55.5 129.5,55.5C 127.283,54.6314 124.95,54.298 122.5,54.5C 123.341,52.6208 123.675,50.6208 123.5,48.5C 123.5,45.8333 123.5,43.1667 123.5,40.5 Z"/></g>
<g><path style="opacity:0.686" fill="#1eb1d3" d="M 163.5,47.5 C 163.769,50.0145 164.769,52.0145 166.5,53.5C 165.833,54.1667 165.167,54.8333 164.5,55.5C 164.167,55.5 163.833,55.5 163.5,55.5C 162.503,55.5299 161.836,55.0299 161.5,54C 162.149,52.3105 162.149,50.4771 161.5,48.5C 161.842,47.6618 162.508,47.3284 163.5,47.5 Z"/></g>
<g><path style="opacity:0.761" fill="#45e4f7" d="M 178.5,50.5 C 178.833,50.5 179.167,50.5 179.5,50.5C 179.5,52.5 179.5,54.5 179.5,56.5C 178.167,56.5 176.833,56.5 175.5,56.5C 175.5,55.8333 175.5,55.1667 175.5,54.5C 177.144,54.1898 178.144,53.1898 178.5,51.5C 178.5,51.1667 178.5,50.8333 178.5,50.5 Z"/></g>
<g><path style="opacity:0.659" fill="#3ac7e0" d="M 17.5,54.5 C 19.8333,54.5 22.1667,54.5 24.5,54.5C 24.8333,54.5 25.1667,54.5 25.5,54.5C 23.1667,55.1667 20.8333,55.8333 18.5,56.5C 17.3478,55.375 16.3478,55.375 15.5,56.5C 14.5,56.1667 13.8333,55.5 13.5,54.5C 14.7054,53.3143 16.0387,53.3143 17.5,54.5 Z"/></g>
<g><path style="opacity:1" fill="#22bacf" d="M 33.5,51.5 C 32.5,52.8333 31.5,54.1667 30.5,55.5C 29.8333,55.8333 29.1667,56.1667 28.5,56.5C 26.1944,56.9926 23.861,57.3259 21.5,57.5C 20.609,56.8902 19.609,56.5569 18.5,56.5C 20.8333,55.8333 23.1667,55.1667 25.5,54.5C 26.609,54.4431 27.609,54.1098 28.5,53.5C 30.1667,52.8333 31.8333,52.1667 33.5,51.5 Z"/></g>
<g><path style="opacity:0.11" fill="#4be5f7" d="M 50.5,51.5 C 52.0481,51.8212 52.7148,52.8212 52.5,54.5C 53.5,54.5 54.5,54.5 55.5,54.5C 55.8333,54.5 56.1667,54.5 56.5,54.5C 54.7354,55.4614 52.7354,55.7947 50.5,55.5C 49.6236,55.6309 48.9569,55.2975 48.5,54.5C 49.1925,53.4822 49.8592,52.4822 50.5,51.5 Z"/></g>
<g><path style="opacity:0.102" fill="#48f2fc" d="M 58.5,48.5 C 58.2627,49.791 58.596,50.791 59.5,51.5C 59.3284,52.4916 59.6618,53.1583 60.5,53.5C 61.1667,53.5 61.8333,53.5 62.5,53.5C 62.5,54.1667 62.1667,54.5 61.5,54.5C 57.8802,56.5812 54.2135,56.9145 50.5,55.5C 52.7354,55.7947 54.7354,55.4614 56.5,54.5C 57.3764,54.6309 58.0431,54.2975 58.5,53.5C 57.2651,51.6837 57.2651,50.017 58.5,48.5 Z"/></g>
<g><path style="opacity:0.204" fill="#5adfed" d="M 62.5,53.5 C 63.391,54.1098 64.391,54.4431 65.5,54.5C 66.5676,55.4345 67.901,55.7678 69.5,55.5C 68.5514,56.1524 67.3847,56.4857 66,56.5C 63.9919,56.6932 62.4919,56.0265 61.5,54.5C 62.1667,54.5 62.5,54.1667 62.5,53.5 Z"/></g>
<g><path style="opacity:0.133" fill="#5bebef" d="M 72.5,53.5 C 75.1667,54.8333 77.8333,54.8333 80.5,53.5C 81.5,53.5 82.5,53.5 83.5,53.5C 80.3662,56.57 76.6995,57.2366 72.5,55.5C 72.5,54.8333 72.5,54.1667 72.5,53.5 Z"/></g>
<g><path style="opacity:0.094" fill="#58e4ed" d="M 99.5,54.5 C 101.199,54.3398 102.866,54.5065 104.5,55C 103.584,55.2784 102.918,55.7784 102.5,56.5C 100.5,56.1667 98.5,55.8333 96.5,55.5C 96.369,54.7611 96.5357,54.0944 97,53.5C 97.6708,54.2524 98.5041,54.5858 99.5,54.5 Z"/></g>
<g><path style="opacity:0.071" fill="#60edf4" d="M 119.5,53.5 C 121.698,53.4088 122.031,54.0755 120.5,55.5C 117.904,56.2653 115.237,56.5987 112.5,56.5C 112.5,55.8333 112.5,55.1667 112.5,54.5C 113.5,54.5 114.5,54.5 115.5,54.5C 116.833,54.1667 118.167,53.8333 119.5,53.5 Z"/></g>
<g><path style="opacity:0.078" fill="#4cdef0" d="M 122.5,55.5 C 122.5,55.1667 122.5,54.8333 122.5,54.5C 124.95,54.298 127.283,54.6314 129.5,55.5C 127.274,56.7563 124.941,56.7563 122.5,55.5 Z"/></g>
<g><path style="opacity:0.024" fill="#4fd0f9" d="M 131.5,52.5 C 131.5,53.1667 131.833,53.5 132.5,53.5C 132.369,54.3764 132.702,55.0431 133.5,55.5C 135.643,54.2463 137.643,54.2463 139.5,55.5C 136.465,56.7335 133.465,56.7335 130.5,55.5C 130.5,55.1667 130.5,54.8333 130.5,54.5C 130.328,53.5084 130.662,52.8417 131.5,52.5 Z"/></g>
<g><path style="opacity:0.055" fill="#18d7ee" d="M 144.5,46.5 C 145.317,48.8309 145.984,51.3309 146.5,54C 145.87,55.3102 144.87,56.1435 143.5,56.5C 143.833,53.1667 144.167,49.8333 144.5,46.5 Z"/></g>
<g><path style="opacity:0.071" fill="#41dcf3" d="M 171.5,49.5 C 172.451,50.9187 172.784,52.5853 172.5,54.5C 173.5,54.5 174.5,54.5 175.5,54.5C 175.5,55.1667 175.5,55.8333 175.5,56.5C 171.298,56.8168 167.298,56.4834 163.5,55.5C 163.833,55.5 164.167,55.5 164.5,55.5C 166.167,55.5 167.833,55.5 169.5,55.5C 169.232,53.901 169.566,52.5676 170.5,51.5C 171.338,51.1583 171.672,50.4916 171.5,49.5 Z"/></g>
<g><path style="opacity:1" fill="#22a8c5" d="M 7.5,53.5 C 8.5,53.8333 9.16667,54.5 9.5,55.5C 8.50596,56.9989 8.50596,58.6656 9.5,60.5C 7.59565,60.2624 6.26231,59.2624 5.5,57.5C 5.35474,56.1591 6.02141,54.8258 7.5,53.5 Z"/></g>
<g><path style="opacity:1" fill="#5fcde9" d="M 37.5,51.5 C 38.1656,52.9122 38.4989,54.2455 38.5,55.5C 38.1583,56.3382 37.4916,56.6716 36.5,56.5C 34.9301,55.4407 33.5968,55.9407 32.5,58C 31.2068,58.49 29.8734,58.6567 28.5,58.5C 28.5,57.8333 28.5,57.1667 28.5,56.5C 29.1667,56.1667 29.8333,55.8333 30.5,55.5C 33.3744,54.9026 35.7077,53.5693 37.5,51.5 Z"/></g>
<g><path style="opacity:1" fill="#0eb8d2" d="M 11.5,53.5 C 12.1667,53.8333 12.8333,54.1667 13.5,54.5C 13.8333,55.5 14.5,56.1667 15.5,56.5C 16.1667,57.1667 16.8333,57.8333 17.5,58.5C 19.0764,59.1429 20.4097,60.1429 21.5,61.5C 19.7839,61.3713 18.1172,61.038 16.5,60.5C 14.6732,59.3088 13.0066,57.9755 11.5,56.5C 11.5,55.5 11.5,54.5 11.5,53.5 Z"/></g>
<g><path style="opacity:1" fill="#37d2e1" d="M 18.5,56.5 C 19.609,56.5569 20.609,56.8902 21.5,57.5C 21.5,57.8333 21.5,58.1667 21.5,58.5C 20.1667,58.5 18.8333,58.5 17.5,58.5C 16.8333,57.8333 16.1667,57.1667 15.5,56.5C 16.3478,55.375 17.3478,55.375 18.5,56.5 Z"/></g>
<g><path style="opacity:1" fill="#13acc2" d="M 9.5,55.5 C 10.1667,55.8333 10.8333,56.1667 11.5,56.5C 13.0066,57.9755 14.6732,59.3088 16.5,60.5C 15.3052,60.3225 14.1385,59.9891 13,59.5C 11.9701,59.8361 11.4701,60.5028 11.5,61.5C 10.5084,61.6716 9.84171,61.3382 9.5,60.5C 8.50596,58.6656 8.50596,56.9989 9.5,55.5 Z"/></g>
<g><path style="opacity:1" fill="#4dcee5" d="M 28.5,56.5 C 28.5,57.1667 28.5,57.8333 28.5,58.5C 28.1583,59.3382 27.4916,59.6716 26.5,59.5C 24.5853,59.7845 22.9187,59.4511 21.5,58.5C 21.5,58.1667 21.5,57.8333 21.5,57.5C 23.861,57.3259 26.1944,56.9926 28.5,56.5 Z"/></g>
<g><path style="opacity:1" fill="#10b8c5" d="M 17.5,58.5 C 18.8333,58.5 20.1667,58.5 21.5,58.5C 22.9187,59.4511 24.5853,59.7845 26.5,59.5C 26.1667,60.1667 25.8333,60.8333 25.5,61.5C 24.5,61.5 23.5,61.5 22.5,61.5C 22.1667,61.5 21.8333,61.5 21.5,61.5C 20.4097,60.1429 19.0764,59.1429 17.5,58.5 Z"/></g>
<g><path style="opacity:0.955" fill="#2db4c6" d="M 36.5,56.5 C 34.4225,60.5319 31.0892,62.5319 26.5,62.5C 26.5,61.8333 26.1667,61.5 25.5,61.5C 25.8333,60.8333 26.1667,60.1667 26.5,59.5C 27.4916,59.6716 28.1583,59.3382 28.5,58.5C 29.8734,58.6567 31.2068,58.49 32.5,58C 33.5968,55.9407 34.9301,55.4407 36.5,56.5 Z"/></g>
<g><path style="opacity:1" fill="#0ca6bb" d="M 16.5,60.5 C 18.1172,61.038 19.7839,61.3713 21.5,61.5C 21.8333,61.5 22.1667,61.5 22.5,61.5C 18.9943,62.498 15.3276,62.498 11.5,61.5C 11.4701,60.5028 11.9701,59.8361 13,59.5C 14.1385,59.9891 15.3052,60.3225 16.5,60.5 Z"/></g>
<g><path style="opacity:0.928" fill="#2db3ce" d="M 11.5,61.5 C 15.3276,62.498 18.9943,62.498 22.5,61.5C 23.5,61.5 24.5,61.5 25.5,61.5C 26.1667,61.5 26.5,61.8333 26.5,62.5C 24.6965,63.162 22.6965,63.4954 20.5,63.5C 17.1864,63.6575 14.1864,62.9908 11.5,61.5 Z"/></g>
<g><path style="opacity:0.008" fill="#6fbcff" d="M 18.5,65.5 C 19.9464,64.3871 21.6131,64.2204 23.5,65C 21.8659,65.4935 20.1992,65.6602 18.5,65.5 Z"/></g>
</svg>
