<svg width="58" height="58" viewBox="0 0 58 58" fill="none" xmlns="http://www.w3.org/2000/svg">
<g filter="url(#filter0_d_7_20)">
<rect x="4" width="50" height="50" rx="10" fill="#133700"/>
<path d="M27.25 15H26.125L25.375 17.875L24.625 15H23.375C23.625 15.75 23.875 16.375 24.125 17.125C24.5 18.125 24.75 19 24.75 19.5V22.5H25.875V19.5L27.25 15ZM30.25 20.625V18.75C30.25 18.125 30.125 17.75 29.875 17.375C29.625 17 29.25 16.875 28.75 16.875C28.25 16.875 27.875 17.125 27.625 17.5C27.375 17.75 27.25 18.125 27.25 18.75V20.75C27.25 21.375 27.375 21.75 27.625 22C27.875 22.375 28.25 22.5 28.75 22.5C29.25 22.5 29.625 22.25 29.875 21.875C30.125 21.75 30.25 21.25 30.25 20.625ZM29.25 20.875C29.25 21.375 29.125 21.625 28.75 21.625C28.375 21.625 28.25 21.375 28.25 20.875V18.5C28.25 18 28.375 17.75 28.75 17.75C29.125 17.75 29.25 18 29.25 18.5V20.875ZM34 22.5V16.875H33V21.125C32.75 21.5 32.625 21.625 32.375 21.625C32.25 21.625 32.125 21.5 32.125 21.375V16.875H31.125V21.25C31.125 21.625 31.125 21.875 31.25 22.125C31.25 22.375 31.5 22.5 31.875 22.5C32.25 22.5 32.625 22.25 33 21.875V22.5H34ZM34.5 28.125C34.125 28.125 34 28.375 34 28.875V29.375H35V28.875C35 28.375 34.875 28.125 34.5 28.125ZM30.875 28.125C30.75 28.125 30.5 28.25 30.375 28.375V31.75C30.5 31.875 30.75 32 30.875 32C31.125 32 31.25 31.75 31.25 31.25V28.875C31.25 28.375 31.125 28.125 30.875 28.125Z" fill="white"/>
<path d="M37 25.375C36.75 24.5 36 23.75 35.25 23.75C33.25 23.5 31.125 23.5 29 23.5C26.875 23.5 24.875 23.5 22.75 23.75C22 23.75 21.25 24.5 21 25.375C20.75 26.625 20.75 28 20.75 29.25C20.75 30.5 20.75 31.875 21 33.125C21.25 34 21.875 34.625 22.75 34.75C24.875 35 26.875 35 29 35C31.125 35 33.125 35 35.25 34.75C36.125 34.625 36.875 34 37 33.125C37.25 31.875 37.25 30.5 37.25 29.25C37.25 28 37.25 26.625 37 25.375ZM25.5 26.5H24.25V32.875H23.125V26.5H22V25.375H25.5V26.5ZM28.5 32.875H27.5V32.25C27.125 32.75 26.75 32.875 26.375 32.875C26 32.875 25.875 32.75 25.75 32.5C25.75 32.375 25.625 32.125 25.625 31.625V27.25H26.625V31.625C26.625 31.75 26.75 31.875 26.875 31.875C27.125 31.875 27.25 31.75 27.5 31.375V27.25H28.5V32.875ZM32.25 31.125C32.25 31.625 32.25 32 32.125 32.25C32 32.625 31.75 32.875 31.375 32.875C31 32.875 30.625 32.625 30.375 32.25V32.75H29.375V25.375H30.375V27.75C30.75 27.375 31 27.125 31.375 27.125C31.75 27.125 32 27.375 32.125 27.75C32.25 28 32.25 28.375 32.25 28.875V31.125ZM36 30.25H34V31.25C34 31.75 34.125 32 34.5 32C34.75 32 34.875 31.875 35 31.625V31H36V31.75C36 32 35.875 32.125 35.75 32.375C35.5 32.75 35.125 33 34.5 33C34 33 33.625 32.75 33.25 32.375C33 32.125 32.875 31.625 32.875 31.125V29.25C32.875 28.625 33 28.25 33.125 28C33.375 27.625 33.75 27.375 34.375 27.375C34.875 27.375 35.25 27.625 35.5 28C35.75 28.25 35.75 28.75 35.75 29.25V30.25H36Z" fill="white"/>
</g>
<defs>
<filter id="filter0_d_7_20" x="0" y="0" width="58" height="58" filterUnits="userSpaceOnUse" color-interpolation-filters="sRGB">
<feFlood flood-opacity="0" result="BackgroundImageFix"/>
<feColorMatrix in="SourceAlpha" type="matrix" values="0 0 0 0 0 0 0 0 0 0 0 0 0 0 0 0 0 0 127 0" result="hardAlpha"/>
<feOffset dy="4"/>
<feGaussianBlur stdDeviation="2"/>
<feComposite in2="hardAlpha" operator="out"/>
<feColorMatrix type="matrix" values="0 0 0 0 0 0 0 0 0 0 0 0 0 0 0 0 0 0 0.1 0"/>
<feBlend mode="normal" in2="BackgroundImageFix" result="effect1_dropShadow_7_20"/>
<feBlend mode="normal" in="SourceGraphic" in2="effect1_dropShadow_7_20" result="shape"/>
</filter>
</defs>
</svg>
